<svg xmlns="http://www.w3.org/2000/svg" xmlns:xlink="http://www.w3.org/1999/xlink" width="2245" zoomAndPan="magnify" viewBox="0 0 1683.75 311.999988" height="416" preserveAspectRatio="xMidYMid meet" version="1.0"><defs><g/><clipPath id="578b89f5b6"><rect x="0" width="1655" y="0" height="191"/></clipPath></defs><g transform="matrix(1, 0, 0, 1, 14, 60)"><g clip-path="url(#578b89f5b6)"><g fill="#ffffff" fill-opacity="1"><g transform="translate(1.489615, 156.642695)"><g><path d="M 30.390625 -143.234375 L 30.390625 -14.8125 L 69.90625 -14.8125 L 69.90625 0 L 14.4375 0 L 14.4375 -143.234375 Z M 30.390625 -143.234375 "/></g></g></g><g fill="#ffffff" fill-opacity="1"><g transform="translate(72.72631, 156.642695)"><g><path d="M 30.78125 -143.234375 L 30.78125 0 L 14.8125 0 L 14.8125 -143.234375 Z M 30.78125 -143.234375 "/></g></g></g><g fill="#ffffff" fill-opacity="1"><g transform="translate(118.127828, 156.642695)"><g><path d="M 129.75 -103.90625 C 123.664062 -112.519531 116.570312 -119.171875 108.46875 -123.859375 C 100.363281 -128.546875 91.054688 -130.890625 80.546875 -130.890625 C 70.160156 -130.890625 60.4375 -128.164062 51.375 -122.71875 C 42.320312 -117.269531 35.164062 -109.953125 29.90625 -100.765625 C 24.65625 -91.585938 22.03125 -81.679688 22.03125 -71.046875 C 22.03125 -60.410156 24.847656 -50.53125 30.484375 -41.40625 C 36.117188 -32.289062 43.367188 -25.164062 52.234375 -20.03125 C 61.109375 -14.90625 70.164062 -12.34375 79.40625 -12.34375 C 88.019531 -12.34375 96.25 -14.304688 104.09375 -18.234375 C 111.945312 -22.160156 118.3125 -27.539062 123.1875 -34.375 C 128.070312 -41.21875 130.515625 -48.820312 130.515625 -57.1875 L 87.953125 -57.1875 L 87.953125 -72 L 147.609375 -72 L 147.609375 -63.828125 C 147.609375 -54.453125 146.023438 -45.773438 142.859375 -37.796875 C 139.691406 -29.816406 134.8125 -22.785156 128.21875 -16.703125 C 121.632812 -10.628906 114.164062 -5.914062 105.8125 -2.5625 C 97.457031 0.789062 88.78125 2.46875 79.78125 2.46875 C 66.738281 2.46875 54.519531 -0.820312 43.125 -7.40625 C 31.726562 -13.988281 22.703125 -23.007812 16.046875 -34.46875 C 9.398438 -45.9375 6.078125 -58.191406 6.078125 -71.234375 C 6.078125 -84.535156 9.460938 -96.945312 16.234375 -108.46875 C 23.015625 -120 32.195312 -129.085938 43.78125 -135.734375 C 55.375 -142.378906 67.691406 -145.703125 80.734375 -145.703125 C 93.273438 -145.703125 104.578125 -143.039062 114.640625 -137.71875 C 124.710938 -132.40625 133.613281 -124.742188 141.34375 -114.734375 Z M 129.75 -103.90625 "/></g></g></g><g fill="#ffffff" fill-opacity="1"><g transform="translate(273.898726, 156.642695)"><g><path d="M 15.390625 -149.3125 L 127.09375 -32.296875 L 127.09375 -143.234375 L 143.046875 -143.234375 L 143.046875 6.453125 L 31.34375 -110.375 L 31.34375 0 L 15.390625 0 Z M 15.390625 -149.3125 "/></g></g></g><g fill="#ffffff" fill-opacity="1"><g transform="translate(432.32914, 156.642695)"><g><path d="M 30.015625 -143.234375 L 30.015625 -54.90625 C 30.015625 -43 31.34375 -34.507812 34 -29.4375 C 36.664062 -24.375 40.941406 -20.257812 46.828125 -17.09375 C 52.710938 -13.925781 58.820312 -12.34375 65.15625 -12.34375 C 71.113281 -12.34375 76.71875 -13.671875 81.96875 -16.328125 C 87.226562 -18.992188 91.09375 -21.941406 93.5625 -25.171875 C 96.03125 -28.398438 97.769531 -32.101562 98.78125 -36.28125 C 99.789062 -40.457031 100.296875 -46.789062 100.296875 -55.28125 L 100.296875 -143.234375 L 116.265625 -143.234375 L 116.265625 -51.859375 C 116.265625 -42.484375 115.28125 -34.914062 113.3125 -29.15625 C 111.351562 -23.394531 107.898438 -18.015625 102.953125 -13.015625 C 98.015625 -8.015625 92.285156 -4.179688 85.765625 -1.515625 C 79.242188 1.140625 72.375 2.46875 65.15625 2.46875 C 56.164062 2.46875 47.710938 0.347656 39.796875 -3.890625 C 31.878906 -8.140625 25.609375 -13.804688 20.984375 -20.890625 C 16.367188 -27.984375 14.0625 -38.429688 14.0625 -52.234375 L 14.0625 -143.234375 Z M 30.015625 -143.234375 "/></g></g></g><g fill="#ffffff" fill-opacity="1"><g transform="translate(562.454821, 156.642695)"><g><path d="M 33.046875 -151.40625 L 85.109375 -31.15625 L 137.34375 -151.40625 L 166.40625 0 L 150.078125 0 L 131.640625 -96.890625 L 131.265625 -96.890625 L 85.109375 5.890625 L 39.140625 -96.890625 L 38.75 -96.890625 L 20.328125 0 L 3.984375 0 Z M 7.984375 -143.234375 Z M 7.984375 -143.234375 "/></g></g></g><g fill="#ffffff" fill-opacity="1"><g transform="translate(732.663049, 156.642695)"><g/></g></g><g fill="#ffffff" fill-opacity="1"><g transform="translate(791.172101, 156.642695)"><g><path d="M 66.484375 -81.875 L 96.6875 -43.3125 L 112.84375 -62.125 L 124.421875 -52.625 L 106.1875 -31.34375 L 130.515625 0 L 110.375 0 L 94.984375 -20.140625 C 86.242188 -12.160156 78.171875 -6.394531 70.765625 -2.84375 C 63.359375 0.695312 56.171875 2.46875 49.203125 2.46875 C 41.734375 2.46875 34.832031 0.757812 28.5 -2.65625 C 22.164062 -6.070312 17.066406 -10.820312 13.203125 -16.90625 C 9.335938 -22.988281 7.40625 -29.828125 7.40625 -37.421875 C 7.40625 -43.628906 8.703125 -49.265625 11.296875 -54.328125 C 13.898438 -59.398438 17.382812 -64.054688 21.75 -68.296875 C 26.125 -72.535156 33.628906 -78.078125 44.265625 -84.921875 C 40.085938 -90.492188 36.664062 -95.648438 34 -100.390625 C 31.34375 -105.140625 30.015625 -110.113281 30.015625 -115.3125 C 30.015625 -124.050781 32.988281 -131.300781 38.9375 -137.0625 C 44.894531 -142.820312 52.367188 -145.703125 61.359375 -145.703125 C 69.847656 -145.703125 77.035156 -142.976562 82.921875 -137.53125 C 88.804688 -132.09375 91.75 -125.445312 91.75 -117.59375 C 91.75 -110.75 89.722656 -104.632812 85.671875 -99.25 C 81.617188 -93.875 75.222656 -88.082031 66.484375 -81.875 Z M 57.375 -93.46875 L 64.015625 -98.40625 C 69.210938 -102.207031 72.601562 -105.5625 74.1875 -108.46875 C 75.769531 -111.382812 76.5625 -114.425781 76.5625 -117.59375 C 76.5625 -121.769531 75.039062 -125.25 72 -128.03125 C 68.957031 -130.820312 65.222656 -132.21875 60.796875 -132.21875 C 56.609375 -132.21875 52.960938 -130.695312 49.859375 -127.65625 C 46.765625 -124.613281 45.21875 -120.878906 45.21875 -116.453125 C 45.21875 -112.273438 46.925781 -107.84375 50.34375 -103.15625 Z M 85.484375 -32.109375 L 53.578125 -73.140625 C 48.765625 -69.972656 44.109375 -66.773438 39.609375 -63.546875 C 35.109375 -60.316406 31.210938 -56.546875 27.921875 -52.234375 C 24.628906 -47.929688 22.984375 -43.117188 22.984375 -37.796875 C 22.984375 -31.085938 25.546875 -25.101562 30.671875 -19.84375 C 35.804688 -14.59375 41.664062 -11.96875 48.25 -11.96875 C 53.695312 -11.96875 59.269531 -13.519531 64.96875 -16.625 C 70.664062 -19.726562 77.503906 -24.890625 85.484375 -32.109375 Z M 85.484375 -32.109375 "/></g></g></g><g fill="#ffffff" fill-opacity="1"><g transform="translate(923.19742, 156.642695)"><g/></g></g><g fill="#ffffff" fill-opacity="1"><g transform="translate(981.706563, 156.642695)"><g><path d="M 38.9375 -143.234375 C 54.007812 -143.234375 65.597656 -139.910156 73.703125 -133.265625 C 81.804688 -126.617188 85.859375 -117.023438 85.859375 -104.484375 C 85.859375 -98.660156 84.75 -93.375 82.53125 -88.625 C 80.320312 -83.875 76.75 -79.851562 71.8125 -76.5625 C 79.789062 -74.53125 86.3125 -70.125 91.375 -63.34375 C 96.4375 -56.570312 98.96875 -48.691406 98.96875 -39.703125 C 98.96875 -27.296875 94.503906 -17.578125 85.578125 -10.546875 C 76.648438 -3.515625 64.332031 0 48.625 0 L 14.4375 0 L 14.4375 -143.234375 Z M 30.390625 -80.171875 L 37.796875 -80.171875 C 47.046875 -80.171875 53.789062 -81.117188 58.03125 -83.015625 C 62.28125 -84.910156 65.320312 -87.597656 67.15625 -91.078125 C 68.988281 -94.566406 69.90625 -99.035156 69.90625 -104.484375 C 69.90625 -112.960938 67.71875 -119.070312 63.34375 -122.8125 C 58.976562 -126.550781 50.398438 -128.421875 37.609375 -128.421875 L 30.390625 -128.421875 Z M 47.296875 -14.8125 C 59.078125 -14.8125 67.972656 -16.992188 73.984375 -21.359375 C 80.003906 -25.734375 83.015625 -32.289062 83.015625 -41.03125 C 83.015625 -49.394531 79.910156 -55.726562 73.703125 -60.03125 C 67.503906 -64.332031 58.007812 -66.484375 45.21875 -66.484375 L 30.390625 -66.484375 L 30.390625 -14.8125 Z M 47.296875 -14.8125 "/></g></g></g><g fill="#ffffff" fill-opacity="1"><g transform="translate(1089.60634, 156.642695)"><g><path d="M 30.390625 -143.234375 L 30.390625 -14.8125 L 69.90625 -14.8125 L 69.90625 0 L 14.4375 0 L 14.4375 -143.234375 Z M 30.390625 -143.234375 "/></g></g></g><g fill="#ffffff" fill-opacity="1"><g transform="translate(1156.283927, 156.642695)"><g><path d="M 7.21875 -71.421875 C 7.21875 -84.597656 10.539062 -96.882812 17.1875 -108.28125 C 23.84375 -119.675781 32.929688 -128.757812 44.453125 -135.53125 C 55.972656 -142.3125 68.445312 -145.703125 81.875 -145.703125 C 95.175781 -145.703125 107.554688 -142.410156 119.015625 -135.828125 C 130.472656 -129.242188 139.585938 -120.1875 146.359375 -108.65625 C 153.140625 -97.132812 156.53125 -84.722656 156.53125 -71.421875 C 156.53125 -58.253906 153.207031 -45.972656 146.5625 -34.578125 C 139.914062 -23.179688 130.859375 -14.15625 119.390625 -7.5 C 107.929688 -0.851562 95.425781 2.46875 81.875 2.46875 C 68.582031 2.46875 56.171875 -0.820312 44.640625 -7.40625 C 33.117188 -13.988281 24 -23.007812 17.28125 -34.46875 C 10.570312 -45.9375 7.21875 -58.253906 7.21875 -71.421875 Z M 81.6875 -130.890625 C 71.050781 -130.890625 61.234375 -128.164062 52.234375 -122.71875 C 43.242188 -117.269531 36.148438 -110.019531 30.953125 -100.96875 C 25.765625 -91.914062 23.171875 -82.132812 23.171875 -71.625 C 23.171875 -61.101562 25.832031 -51.285156 31.15625 -42.171875 C 36.476562 -33.054688 43.664062 -25.804688 52.71875 -20.421875 C 61.769531 -15.035156 71.488281 -12.34375 81.875 -12.34375 C 92.382812 -12.34375 102.226562 -15.066406 111.40625 -20.515625 C 120.59375 -25.960938 127.75 -33.242188 132.875 -42.359375 C 138.007812 -51.484375 140.578125 -61.238281 140.578125 -71.625 C 140.578125 -82.257812 137.945312 -92.164062 132.6875 -101.34375 C 127.4375 -110.53125 120.28125 -117.75 111.21875 -123 C 102.164062 -128.257812 92.320312 -130.890625 81.6875 -130.890625 Z M 81.6875 -130.890625 "/></g></g></g><g fill="#ffffff" fill-opacity="1"><g transform="translate(1320.033313, 156.642695)"><g><path d="M 7.21875 -71.421875 C 7.21875 -84.597656 10.539062 -96.882812 17.1875 -108.28125 C 23.84375 -119.675781 32.929688 -128.757812 44.453125 -135.53125 C 55.972656 -142.3125 68.445312 -145.703125 81.875 -145.703125 C 95.175781 -145.703125 107.554688 -142.410156 119.015625 -135.828125 C 130.472656 -129.242188 139.585938 -120.1875 146.359375 -108.65625 C 153.140625 -97.132812 156.53125 -84.722656 156.53125 -71.421875 C 156.53125 -58.253906 153.207031 -45.972656 146.5625 -34.578125 C 139.914062 -23.179688 130.859375 -14.15625 119.390625 -7.5 C 107.929688 -0.851562 95.425781 2.46875 81.875 2.46875 C 68.582031 2.46875 56.171875 -0.820312 44.640625 -7.40625 C 33.117188 -13.988281 24 -23.007812 17.28125 -34.46875 C 10.570312 -45.9375 7.21875 -58.253906 7.21875 -71.421875 Z M 81.6875 -130.890625 C 71.050781 -130.890625 61.234375 -128.164062 52.234375 -122.71875 C 43.242188 -117.269531 36.148438 -110.019531 30.953125 -100.96875 C 25.765625 -91.914062 23.171875 -82.132812 23.171875 -71.625 C 23.171875 -61.101562 25.832031 -51.285156 31.15625 -42.171875 C 36.476562 -33.054688 43.664062 -25.804688 52.71875 -20.421875 C 61.769531 -15.035156 71.488281 -12.34375 81.875 -12.34375 C 92.382812 -12.34375 102.226562 -15.066406 111.40625 -20.515625 C 120.59375 -25.960938 127.75 -33.242188 132.875 -42.359375 C 138.007812 -51.484375 140.578125 -61.238281 140.578125 -71.625 C 140.578125 -82.257812 137.945312 -92.164062 132.6875 -101.34375 C 127.4375 -110.53125 120.28125 -117.75 111.21875 -123 C 102.164062 -128.257812 92.320312 -130.890625 81.6875 -130.890625 Z M 81.6875 -130.890625 "/></g></g></g><g fill="#ffffff" fill-opacity="1"><g transform="translate(1483.782698, 156.642695)"><g><path d="M 33.046875 -151.40625 L 85.109375 -31.15625 L 137.34375 -151.40625 L 166.40625 0 L 150.078125 0 L 131.640625 -96.890625 L 131.265625 -96.890625 L 85.109375 5.890625 L 39.140625 -96.890625 L 38.75 -96.890625 L 20.328125 0 L 3.984375 0 Z M 7.984375 -143.234375 Z M 7.984375 -143.234375 "/></g></g></g></g></g></svg>